<mxfile host="app.diagrams.net" modified="2020-09-16T23:10:01.425Z" agent="5.0 (Windows NT 10.0; Win64; x64) AppleWebKit/537.36 (KHTML, like Gecko) Chrome/85.0.4183.102 Safari/537.36" etag="AkccujcDIWhaVjnUfqRV" version="13.6.6" type="github">
  <diagram id="Y17Pwww_urs-gfdWa0kV" name="Page-1">
    <mxGraphModel dx="2187" dy="802" grid="1" gridSize="10" guides="1" tooltips="1" connect="1" arrows="1" fold="1" page="1" pageScale="1" pageWidth="827" pageHeight="1169" math="0" shadow="0">
      <root>
        <mxCell id="0" />
        <mxCell id="1" parent="0" />
        <mxCell id="OEdZfnI2xc4ZMJ_EUlpt-1" value="Actor" style="shape=umlActor;verticalLabelPosition=bottom;verticalAlign=top;html=1;outlineConnect=0;" vertex="1" parent="1">
          <mxGeometry x="430" y="40" width="30" height="60" as="geometry" />
        </mxCell>
        <mxCell id="OEdZfnI2xc4ZMJ_EUlpt-2" value="Desarrollador SIG" style="shape=umlActor;verticalLabelPosition=bottom;verticalAlign=top;html=1;outlineConnect=0;" vertex="1" parent="1">
          <mxGeometry x="-150" y="230" width="30" height="60" as="geometry" />
        </mxCell>
        <mxCell id="OEdZfnI2xc4ZMJ_EUlpt-3" value="Estructurador" style="shape=umlActor;verticalLabelPosition=bottom;verticalAlign=top;html=1;outlineConnect=0;" vertex="1" parent="1">
          <mxGeometry x="100" y="230" width="30" height="60" as="geometry" />
        </mxCell>
        <mxCell id="OEdZfnI2xc4ZMJ_EUlpt-4" value="Estructurador" style="shape=umlActor;verticalLabelPosition=bottom;verticalAlign=top;html=1;outlineConnect=0;" vertex="1" parent="1">
          <mxGeometry x="180" y="230" width="30" height="60" as="geometry" />
        </mxCell>
        <mxCell id="OEdZfnI2xc4ZMJ_EUlpt-5" value="Profesional&lt;br&gt;Especializado" style="shape=umlActor;verticalLabelPosition=bottom;verticalAlign=top;html=1;outlineConnect=0;" vertex="1" parent="1">
          <mxGeometry x="440" y="220" width="30" height="60" as="geometry" />
        </mxCell>
        <mxCell id="OEdZfnI2xc4ZMJ_EUlpt-6" value="Profesional GIS &lt;br&gt;(Mesa Ayuda Proyecto Territorios+)" style="shape=umlActor;verticalLabelPosition=bottom;verticalAlign=top;html=1;outlineConnect=0;" vertex="1" parent="1">
          <mxGeometry x="730" y="240" width="30" height="60" as="geometry" />
        </mxCell>
        <mxCell id="OEdZfnI2xc4ZMJ_EUlpt-13" value="&lt;div style=&quot;text-align: justify&quot;&gt;&lt;span&gt;Profesional Ingeniero Sistemas o Profesional Ingeniero Catastral, Topográfico o ciencias afines, deseable con especialización en Sistemas de Información Geográfica, Geomática o afines, con experiencia certificada en la generación de aplicaciones y/o desarrollos y/o automatizaciones geográficas y alfanuméricas implementando lenguajes de programación tal como Python y/o Javascript y/o HTML, deseable con experiencia en el manejo de sistemas manejadores de bases de datos tales como Oracle, Postgres y/o SQL Server. Con experiencia laboral certificada en al menos dos (2) proyectos asociados a la gestión y administración de datos geográficos bajo software ArcGIS.&lt;/span&gt;&lt;/div&gt;" style="text;html=1;strokeColor=none;fillColor=none;align=center;verticalAlign=middle;whiteSpace=wrap;rounded=0;" vertex="1" parent="1">
          <mxGeometry x="-260" y="350" width="250" height="230" as="geometry" />
        </mxCell>
        <mxCell id="OEdZfnI2xc4ZMJ_EUlpt-14" value="&lt;div style=&quot;text-align: justify&quot;&gt;&lt;span&gt;Profesional titulado a nivel de pregrado en Ingeniera Catastral, Topográfica, Geografía, Cartografía o ciencias afines,&amp;nbsp; con experiencia certificada en la digitalización, generación, estructuración y aseguramiento de información geográfica, deseable con experiencia en la ejecución de procesos de validación de calidad de datos espaciales y alfanuméricos. Con experiencia laboral certificada en al menos un (1) proyecto asociados a la generación, documentación y/o administración de datos catastrales, prediales y/o afines.&lt;/span&gt;&lt;/div&gt;" style="text;html=1;strokeColor=none;fillColor=none;align=center;verticalAlign=middle;whiteSpace=wrap;rounded=0;" vertex="1" parent="1">
          <mxGeometry x="30" y="320" width="250" height="230" as="geometry" />
        </mxCell>
        <mxCell id="OEdZfnI2xc4ZMJ_EUlpt-15" value="&lt;div style=&quot;text-align: justify&quot;&gt;&lt;span&gt;Profesional&amp;nbsp; Ingeniero Catastral, Topográfico o ciencias afines con especialización en Gerencia de Proyectos, Gestión de Proyectos de Ingeniería, Avalúos o afines, deseable con experiencia laboral certificada en la generación y documentación de metodologías que permitan orientar procesos de estructuración de información alfanumérica, vectorial y/o raster.&lt;/span&gt;&lt;span&gt;&amp;nbsp;Con experiencia laboral certificada en la gestión de proyectos,&amp;nbsp; y desarrollo de planes de trabajo y gestión de calidad deseable en proyectos asociados a administración predial, además, con experiencia en el manejo de datos geográficos dentro de plataformas ArcGIS y/o QGIS, construcción y publicación de servicios web geográficos, diseño e implementación de encuestas, bajo software licenciado y libre.&lt;/span&gt;&lt;/div&gt;" style="text;html=1;strokeColor=none;fillColor=none;align=center;verticalAlign=middle;whiteSpace=wrap;rounded=0;" vertex="1" parent="1">
          <mxGeometry x="330" y="350" width="250" height="230" as="geometry" />
        </mxCell>
        <mxCell id="OEdZfnI2xc4ZMJ_EUlpt-16" value="&lt;div style=&quot;text-align: justify&quot;&gt;&lt;span&gt;- Ejecuta procesos de levantamiento de requerimientos con áreas técnicas, misionales y/o aliados estratégicos, con el fin de documentar los procesos a desarrollarse durante la ejecución del contrato.&lt;/span&gt;&lt;/div&gt;&lt;div style=&quot;text-align: justify&quot;&gt;&lt;span&gt;- Diseña, desarrolla, documenta y mejora, procesos de automatización tomando como referencia lo estipulado dentro en los procesos de levantamiento de requerimientos y/o enmarcados en las necesidades definidas por el negocio.&lt;/span&gt;&lt;/div&gt;&lt;div style=&quot;text-align: justify&quot;&gt;&lt;span&gt;- Construye y publica el lineamiento para la construcción de software, articulada a la necesidad de la entidad y relacionada con los negocios en operación.&lt;/span&gt;&lt;/div&gt;&lt;div style=&quot;text-align: justify&quot;&gt;&lt;span&gt;- Genera, actualiza y mantiene las bases de datos y bases cartográficas sobre los proyectos a los que fue asignado&lt;/span&gt;&lt;/div&gt;" style="text;html=1;strokeColor=none;fillColor=none;align=center;verticalAlign=middle;whiteSpace=wrap;rounded=0;" vertex="1" parent="1">
          <mxGeometry x="-260" y="630" width="250" height="280" as="geometry" />
        </mxCell>
        <mxCell id="OEdZfnI2xc4ZMJ_EUlpt-17" value="&lt;div style=&quot;text-align: justify&quot;&gt;&lt;span&gt;- Estructura información geográfica y/o alfanumérica dentro de las bases de datos correspondientes al sistema de información geográfico de la entidad.&lt;/span&gt;&lt;/div&gt;&lt;div style=&quot;text-align: justify&quot;&gt;&lt;span&gt;- Apoya procesos de digitalización y/o georreferenciación de planos, expendientes, mapas y cualquier otro insumo que sea requerido.&lt;/span&gt;&lt;/div&gt;&lt;div style=&quot;text-align: justify&quot;&gt;&lt;span&gt;- Apoya la aplicación de procesos de control de calidad y producción de información geográfica.&lt;/span&gt;&lt;/div&gt;&lt;div style=&quot;text-align: justify&quot;&gt;&lt;span&gt;- Apoya procesos de generación y actualización catastral a partir de imágenes provenientes de sensores remotos.&lt;/span&gt;&lt;/div&gt;&lt;div style=&quot;text-align: justify&quot;&gt;&lt;span&gt;- Apoya procesos de documentación de la información geográfica centralizada en el sistema de información geográfica, alineado a las políticas nacionales de gestión de datos geoespaciales.&lt;/span&gt;&lt;/div&gt;&lt;div style=&quot;text-align: justify&quot;&gt;&lt;br&gt;&lt;/div&gt;" style="text;html=1;strokeColor=none;fillColor=none;align=center;verticalAlign=middle;whiteSpace=wrap;rounded=0;" vertex="1" parent="1">
          <mxGeometry x="30" y="640" width="250" height="280" as="geometry" />
        </mxCell>
        <mxCell id="OEdZfnI2xc4ZMJ_EUlpt-18" value="&lt;div style=&quot;text-align: justify&quot;&gt;&lt;span&gt;- Apoya la construcción de metodologías asociadas a la gestión del dato geográfico dentro de los sistemas de información de la entidad.&lt;/span&gt;&lt;/div&gt;&lt;div style=&quot;text-align: justify&quot;&gt;&lt;span&gt;- Apoya procesos de seguimiento y ejecución de planes de trabajo, asociado con el componente espacial.&lt;/span&gt;&lt;/div&gt;&lt;div style=&quot;text-align: justify&quot;&gt;&lt;span&gt;- Crea, estructura, centraliza y publica, por medio de servicios web geográficos, información clave para el desarrollo y seguimiento de proyectos geográficos de la entidad.&lt;/span&gt;&lt;/div&gt;&lt;div style=&quot;text-align: justify&quot;&gt;&lt;span&gt;- Apoya la construcción de tableros de control, encuestas, y demás servicios, que propendan por apoyar la toma de decisiones a nivel gerencial de la entidad.&lt;/span&gt;&lt;/div&gt;&lt;div style=&quot;text-align: justify&quot;&gt;&lt;span&gt;- Apoya procesos de análitica de datos, inteligencia de negocios y big data, teniendo en cuenta los proyectos en operación, la data centralizada y los objetivos estratégicos de los proyectos en pro de generar valor agregado sobre la información.&lt;/span&gt;&lt;/div&gt;" style="text;html=1;strokeColor=none;fillColor=none;align=center;verticalAlign=middle;whiteSpace=wrap;rounded=0;" vertex="1" parent="1">
          <mxGeometry x="330" y="630" width="250" height="340" as="geometry" />
        </mxCell>
      </root>
    </mxGraphModel>
  </diagram>
</mxfile>
